HIERARCHY
ROOT Hips
{
	OFFSET -14.64140 90.27770 -84.91600
	CHANNELS 6 Xposition Yposition Zposition Zrotation Xrotation Yrotation
	JOINT Spine
	{
		OFFSET 0.00000 13.20850 -1.60436
		CHANNELS 3 Zrotation Xrotation Yrotation
		JOINT Spine1
		{
			OFFSET 0.00000 8.61716 0.00000
			CHANNELS 3 Zrotation Xrotation Yrotation
			JOINT Spine2
			{
				OFFSET 0.00000 8.61717 0.00000
				CHANNELS 3 Zrotation Xrotation Yrotation
				JOINT Spine3
				{
					OFFSET 0.00000 8.61717 0.00000
					CHANNELS 3 Zrotation Xrotation Yrotation
					JOINT Neck
					{
						OFFSET 0.00000 11.07920 1.10792
						CHANNELS 3 Zrotation Xrotation Yrotation
						JOINT Neck1
						{
							OFFSET 0.00000 7.08032 0.00000
							CHANNELS 3 Zrotation Xrotation Yrotation
							JOINT Head
							{
								OFFSET 0.00000 7.08031 0.00000
								CHANNELS 3 Zrotation Xrotation Yrotation
								End site
								{
									OFFSET 0.00000 0.00000 0.00000
								}
							}
						}
					}
					JOINT RightShoulder
					{
						OFFSET -0.01000 7.91373 5.19711
						CHANNELS 3 Zrotation Xrotation Yrotation
						JOINT RightArm
						{
							OFFSET -18.41580 0.00000 0.00000
							CHANNELS 3 Zrotation Xrotation Yrotation
							JOINT RightForeArm
							{
								OFFSET -29.11090 0.00000 0.00000
								CHANNELS 3 Zrotation Xrotation Yrotation
								JOINT RightHand
								{
									OFFSET -24.65040 0.00000 0.00000
									CHANNELS 3 Zrotation Xrotation Yrotation
									JOINT RightHandThumb1
									{
										OFFSET -5.35114 -0.85590 3.97906
										CHANNELS 3 Zrotation Xrotation Yrotation
										JOINT RightHandThumb2
										{
											OFFSET -4.52789 0.00000 0.00000
											CHANNELS 3 Zrotation Xrotation Yrotation
											JOINT RightHandThumb3
											{
												OFFSET -2.46976 0.00000 0.00000
												CHANNELS 3 Zrotation Xrotation Yrotation
												End site
												{
													OFFSET 0.00000 0.00000 0.00000
												}
											}
										}
									}
									JOINT RightHandIndex1
									{
										OFFSET -14.26970 0.00000 2.88139
										CHANNELS 3 Zrotation Xrotation Yrotation
										JOINT RightHandIndex2
										{
											OFFSET -5.48836 0.00000 0.00000
											CHANNELS 3 Zrotation Xrotation Yrotation
											JOINT RightHandIndex3
											{
												OFFSET -3.01859 0.00000 0.00000
												CHANNELS 3 Zrotation Xrotation Yrotation
												End site
												{
													OFFSET 0.00000 0.00000 0.00000
												}
											}
										}
									}
									JOINT RightHandMiddle1
									{
										OFFSET -14.26970 0.00000 -0.09147
										CHANNELS 3 Zrotation Xrotation Yrotation
										JOINT RightHandMiddle2
										{
											OFFSET -6.17441 0.00000 0.00000
											CHANNELS 3 Zrotation Xrotation Yrotation
											JOINT RightHandMiddle3
											{
												OFFSET -3.56743 0.00000 0.00000
												CHANNELS 3 Zrotation Xrotation Yrotation
												End site
												{
													OFFSET 0.00000 0.00000 0.00000
												}
											}
										}
									}
									JOINT RightHandRing1
									{
										OFFSET -12.69180 0.00000 -3.06433
										CHANNELS 3 Zrotation Xrotation Yrotation
										JOINT RightHandRing2
										{
											OFFSET -5.62556 0.00000 0.00000
											CHANNELS 3 Zrotation Xrotation Yrotation
											JOINT RightHandRing3
											{
												OFFSET -3.56744 0.00000 0.00000
												CHANNELS 3 Zrotation Xrotation Yrotation
												End site
												{
													OFFSET 0.00000 0.00000 0.00000
												}
											}
										}
									}
									JOINT RightHandPinky1
									{
										OFFSET -11.11390 0.00000 -6.03719
										CHANNELS 3 Zrotation Xrotation Yrotation
										JOINT RightHandPinky2
										{
											OFFSET -4.52789 0.00000 0.00000
											CHANNELS 3 Zrotation Xrotation Yrotation
											JOINT RightHandPinky3
											{
												OFFSET -2.46976 0.00000 0.00000
												CHANNELS 3 Zrotation Xrotation Yrotation
												End site
												{
													OFFSET 0.00000 0.00000 0.00000
												}
											}
										}
									}
								}
							}
						}
					}
					JOINT LeftShoulder
					{
						OFFSET 0.01000 7.91373 5.19711
						CHANNELS 3 Zrotation Xrotation Yrotation
						JOINT LeftArm
						{
							OFFSET 18.41580 0.00000 0.00000
							CHANNELS 3 Zrotation Xrotation Yrotation
							JOINT LeftForeArm
							{
								OFFSET 29.11090 0.00000 0.00000
								CHANNELS 3 Zrotation Xrotation Yrotation
								JOINT LeftHand
								{
									OFFSET 24.65040 0.00000 0.00000
									CHANNELS 3 Zrotation Xrotation Yrotation
									JOINT LeftHandThumb1
									{
										OFFSET 5.35114 -0.85590 3.97906
										CHANNELS 3 Zrotation Xrotation Yrotation
										JOINT LeftHandThumb2
										{
											OFFSET 4.52789 0.00000 0.00000
											CHANNELS 3 Zrotation Xrotation Yrotation
											JOINT LeftHandThumb3
											{
												OFFSET 2.46977 0.00000 0.00000
												CHANNELS 3 Zrotation Xrotation Yrotation
												End site
												{
													OFFSET 0.00000 0.00000 0.00000
												}
											}
										}
									}
									JOINT LeftHandIndex1
									{
										OFFSET 14.26970 0.00000 2.88139
										CHANNELS 3 Zrotation Xrotation Yrotation
										JOINT LeftHandIndex2
										{
											OFFSET 5.48836 0.00000 0.00000
											CHANNELS 3 Zrotation Xrotation Yrotation
											JOINT LeftHandIndex3
											{
												OFFSET 3.01859 0.00000 0.00000
												CHANNELS 3 Zrotation Xrotation Yrotation
												End site
												{
													OFFSET 0.00000 0.00000 0.00000
												}
											}
										}
									}
									JOINT LeftHandMiddle1
									{
										OFFSET 14.26970 0.00000 -0.09147
										CHANNELS 3 Zrotation Xrotation Yrotation
										JOINT LeftHandMiddle2
										{
											OFFSET 6.17440 0.00000 0.00000
											CHANNELS 3 Zrotation Xrotation Yrotation
											JOINT LeftHandMiddle3
											{
												OFFSET 3.56744 0.00000 0.00000
												CHANNELS 3 Zrotation Xrotation Yrotation
												End site
												{
													OFFSET 0.00000 0.00000 0.00000
												}
											}
										}
									}
									JOINT LeftHandRing1
									{
										OFFSET 12.69180 0.00000 -3.06433
										CHANNELS 3 Zrotation Xrotation Yrotation
										JOINT LeftHandRing2
										{
											OFFSET 5.62556 0.00000 0.00000
											CHANNELS 3 Zrotation Xrotation Yrotation
											JOINT LeftHandRing3
											{
												OFFSET 3.56744 0.00000 0.00000
												CHANNELS 3 Zrotation Xrotation Yrotation
												End site
												{
													OFFSET 0.00000 0.00000 0.00000
												}
											}
										}
									}
									JOINT LeftHandPinky1
									{
										OFFSET 11.11390 0.00000 -6.03719
										CHANNELS 3 Zrotation Xrotation Yrotation
										JOINT LeftHandPinky2
										{
											OFFSET 4.52789 0.00000 0.00000
											CHANNELS 3 Zrotation Xrotation Yrotation
											JOINT LeftHandPinky3
											{
												OFFSET 2.46976 0.00000 0.00000
												CHANNELS 3 Zrotation Xrotation Yrotation
												End site
												{
													OFFSET 0.00000 0.00000 0.00000
												}
											}
										}
									}
								}
							}
						}
					}
					JOINT pCube4
					{
						OFFSET 0.00000 10.91090 1.10792
						CHANNELS 3 Zrotation Xrotation Yrotation
						End site
						{
							OFFSET 0.00000 0.00000 0.00000
						}
					}
				}
			}
		}
	}
	JOINT RightUpLeg
	{
		OFFSET -9.98441 0.00000 0.00000
		CHANNELS 3 Zrotation Xrotation Yrotation
		JOINT RightLeg
		{
			OFFSET 0.00000 -42.11790 0.00000
			CHANNELS 3 Zrotation Xrotation Yrotation
			JOINT RightFoot
			{
				OFFSET 0.00000 -45.00020 -0.00001
				CHANNELS 3 Zrotation Xrotation Yrotation
				JOINT RightForeFoot
				{
					OFFSET 0.00000 -3.74820 0.00000
					CHANNELS 3 Zrotation Xrotation Yrotation
					JOINT RightToeBase
					{
						OFFSET 0.00000 0.06325 14.43120
						CHANNELS 3 Zrotation Xrotation Yrotation
						End site
						{
							OFFSET 0.00000 0.00000 0.00000
						}
					}
				}
			}
		}
	}
	JOINT LeftUpLeg
	{
		OFFSET 9.98441 0.00000 0.00000
		CHANNELS 3 Zrotation Xrotation Yrotation
		JOINT LeftLeg
		{
			OFFSET 0.00000 -42.11800 0.00000
			CHANNELS 3 Zrotation Xrotation Yrotation
			JOINT LeftFoot
			{
				OFFSET 0.00000 -45.00070 0.00000
				CHANNELS 3 Zrotation Xrotation Yrotation
				JOINT LeftForeFoot
				{
					OFFSET 0.00000 -3.74824 0.00000
					CHANNELS 3 Zrotation Xrotation Yrotation
					JOINT LeftToeBase
					{
						OFFSET 0.00000 0.06325 14.43110
						CHANNELS 3 Zrotation Xrotation Yrotation
						End site
						{
							OFFSET 0.00000 0.00000 0.00000
						}
					}
				}
			}
		}
	}
}
MOTION
Frames: 4
Frame Time: 0.050000
-0.036189819060601314 0.022363360536386004 -0.007303356648912046 -0.024142428522199125 0.014066518063062675 -0.04359212795141374 -3.2453759302054324 8.57171223495 -0.6484815850096499 -0.7997352147443986 3.1512717861800508 0.33849921700784813 -0.9153982983857647 0.24069526389357074 -1.6950751849335763 -0.0823131339847097 0.6151296809691469 -1.0223988264497017 -0.4917000921620014 8.756383549883989 0.29403651446511153 -0.2179544277041935 -1.1493465394892954 -2.4685051786984658 -0.19062930173365003 -15.646718980276235 -0.1401800950893609 3.0901146677821303 0.039623416743453065 -9.873734179066476 60.98857799787666 2.4166804734335074 22.08827000159716 6.385413866388261 4.332963868386683 98.17561535187446 16.189704467819983 -0.33357954557442504 -5.543175788925828 4.553112547585741 -0.12749287781927324 -1.5758963290075267 0.019697165666671446 0.024210205498096642 -56.20529961876668 -0.024408577015664297 0.005897813831086053 -56.18452872201853 -38.792252797289024 -0.019324762122298247 0.0433548647012384 0.045462213090873185 0.0044279598740342724 -0.024371854124830176 0.018162957907114276 0.010940881044313183 0.03204962729608067 -36.687307678032255 0.01958358132703998 0.014710429800284985 0.0378019406624935 0.010416736081028867 0.04827345649867827 0.007525361351433544 0.029736789606959038 0.02246343581201046 -19.791473292210238 0.02844915373581705 0.012760473885929225 -0.04875457562243647 0.04874264260426677 -0.018422279905869383 -0.01066379335211684 0.043243424565969836 0.016744444602561803 24.06860487002072 0.01471998573529181 0.02639929278423642 28.841625346193627 0.007200941840344516 0.011788992506886612 28.915028529077585 -0.015334950271971294 0.028662320159502135 -0.24552972664932768 0.4985124171019988 8.760884145437606 -54.91964861772239 20.78808041127606 -32.368796990770846 16.349679036394456 -12.554777418553263 -105.59513348489516 -3.2134272043111083 1.7854831127438973 -4.04040119771719 -0.46125041906141634 0.05052887792546576 -8.166128000141919 0.011901164100270756 -0.03880081789358673 44.56205490984009 -0.030570885784288467 -0.01161624668061018 44.55523542805195 12.41449922658072 -0.044780805307633884 0.0365702900910019 0.020514357789730216 -0.030339838234901863 0.038371107989738217 0.04663664990960403 -0.024529227783899314 -0.046986605366884183 11.110732633292901 -0.0056358271017953095 0.0068413596217960625 0.009335012390110866 0.0441999909330373 0.03362750759006892 -0.010383186800749233 0.04520413588434704 -0.02465186510991314 4.781573609176775 -0.017248891595802642 -0.039035401021830556 0.02587872296949546 0.020659922392590804 0.022109045684087298 -0.04187202572000176 0.0016886259179704967 0.016105888580515215 -5.561699548670236 -0.0014384645556951713 0.03945394440758579 -6.726056352075765 0.03733244900210061 0.029885520658488637 -6.758835182129595 -0.014578947860248265 0.04561139713976571 0.0356923589825476 -0.033553137196159134 0.004138600664457606 8.064829493621044 3.5381805563392126 -19.225222184181096 0.020927667305331844 10.387564018515063 0.024498480533629168 -5.619942087044906 -15.627685285144635 3.170057038835062 -0.01910816926586503 -0.04086053840423017 -0.03332516216840071 -0.03887729351879259 4.670204454424625 0.016685655255884356 12.457229753524155 -8.20346300863389 6.9031944030182695 0.013158347073025906 46.379210457825394 -0.03176841107216175 -4.336810932442321 -14.78595896003539 -3.819537707393555 -0.000965106052176874 0.009470411827184463 -0.024776791501787937 0.010209707073372837 -10.78166219613503 -0.016408046978787515 
-0.03039136909995322 0.0018317384900556656 0.012315103056710994 -0.01845150161201008 0.007821099966808324 0.01856030499362217 -3.349297573701211 8.692391861097231 -0.6775623751549668 -0.7696121956088178 3.180032968968598 0.43004174118098815 -0.8791647847989132 0.25806925725133834 -1.7075415349881686 -0.15911522408503806 0.6145452151661169 -1.0588465665217355 -0.5579210122658967 8.810744079251567 0.37117528628412805 -0.2551437897589122 -1.1804278434839308 -2.437646715838275 -0.22458234980948186 -15.576076493468882 -0.08510533364062761 3.1488955652665145 0.035523215636751856 -9.798605362237902 60.253470273904234 1.8004718579555778 22.3222930155242 4.831690102360308 3.8424073375628143 98.46059705378114 16.33274510868081 -0.42370085833938287 -5.2598361301697 4.545168482985949 -0.15663245623395575 -1.6010498200813366 -0.0394831951092185 0.0021800019312718864 -56.1918060759889 0.02051618737682611 0.013243791975831316 -56.19070676913616 -38.75708156474121 -0.049675986306766125 -0.00714075664790334 -0.007278299600344563 -0.0009950909466660575 -0.03630611054696681 0.020409616141986386 0.0016882230913549717 -0.02524225251319581 -36.65391242017885 0.011744036725036567 -0.03580060263144845 0.0032358097870721723 0.015372696823374422 0.010818973329908742 -0.0013773076529465084 -0.04547674444217807 0.007820716697742926 -19.77503912883702 -0.013348681536571629 0.013798598797404808 0.03555406887227136 0.028784084979746345 0.0316945228263374 0.014689530378811136 0.037543117590038366 -0.012498514036221459 24.049107440825946 -0.026857362430630104 -0.03870575163905274 28.864961156577007 0.016745883853747808 -0.02426112356830567 28.88387797596274 -0.011901525635293174 -0.02911976903274993 -0.24222642934703584 0.5194013407100384 8.835482761232976 -53.76012391297249 20.444147902124396 -32.67966460318551 21.052363082338868 -13.965261552022094 -107.23467365876384 -2.568482451499419 2.3007840787363794 -4.8929190844054515 -0.4880439471797708 0.06453203640822602 -8.13747384124238 -0.03820335308737001 -0.011623370788091456 44.530054897244526 0.029387446019574017 0.014928606945687197 44.59332570665566 12.494517417595834 0.0025684989220169344 -0.03694764381136755 -0.03287850451058081 -0.032178852022386406 -0.044018732769606043 0.03404042160696747 0.024883703911508275 -0.011579903321854601 11.097160660593365 -0.048367828760295675 0.012606698729860817 0.02182384746562543 -0.0004716239851349677 0.0473967747106867 0.006751703927810624 0.021652536901652936 0.014783988350154447 4.7865384340134405 0.011338489847285601 -0.04820959667435395 0.014821426255434627 0.017164766709270775 -0.03465819042582458 0.01470552953753762 -0.0056543230455983395 -0.034452258949206005 -5.61926651518322 0.02377788916550283 0.04594706631909042 -6.733514594168472 0.0045380300785965244 0.04000996404338304 -6.750676427317681 -0.04595362283818253 0.031654886855696875 0.038485606164718196 -0.002691017276462313 0.002421155751484715 8.040686365442019 3.5107954440207165 -19.253726225347883 0.02147489008015931 10.367255138950336 0.016994491645118088 -5.599242442051543 -15.635376029985759 3.165798267347507 0.027270289547698306 0.0425233694333832 0.04283788079925694 -0.0491851104077392 4.732649376857149 -0.038667895236811294 12.479235721325235 -8.190755135378563 6.857731313604774 -0.0036606206571613187 46.347726038711976 0.039715284635932414 -4.326160622270296 -14.726704865802766 -3.8841952798697648 -0.03976692673741989 0.023526517783394846 0.019262414364033323 -0.03451752645006847 -10.788245084677484 -0.03049815719047269 
-0.020662513803371446 -0.044937081180121206 -0.03587243173849076 -0.007562312538831698 -0.016443623477685725 -0.03392901890444929 -3.401341061809148 8.729156781828861 -0.6837110073685867 -0.8401225697584619 3.1434902876441218 0.4044156927820541 -0.8550077837389167 0.24695244734495025 -1.6609803731783723 -0.17418633765514344 0.6376950780896781 -1.0508229795579265 -0.5736101642875029 8.771305130793365 0.37782328524222875 -0.315471457692548 -1.1387179286301294 -2.439377357693537 -0.23298700228421468 -15.537252090796773 -0.0895429388797347 3.150872299475927 0.07665072774444479 -9.782441935271628 59.64505160544796 1.330809540879212 22.452403340418154 3.5618914583147077 3.381344635938834 98.5146754463676 16.36678685158291 -0.428115986953682 -4.999324116514399 4.566016056740738 -0.1750096650220965 -1.6344775151611195 0.03567249541059454 0.027502376207305248 -56.23283350115673 -0.021921294184268143 -0.025873148612255793 -56.19201658516597 -38.79799168480077 -0.016781897429128435 -0.03247567160131094 -0.02940078725442306 -0.005900816916753267 0.0010636338409432135 0.018906052760274027 0.026675771146122452 0.021500744318335353 -36.70031631581973 0.03283418388118161 0.023426589794018564 0.020909987676667668 0.02531270856205362 0.02133051304388972 -0.046045690348361965 0.01805977922963165 -0.03399528801655067 -19.728743932277663 -0.030692648000309214 -0.01352295860841452 0.008931564076954487 0.039068324501365326 -0.031906807788436256 0.047894557212952646 -0.010540493519967125 0.005652347564592392 24.050648106832295 0.04919343212794817 0.034576629054677316 28.856849362913938 0.0015558356129451356 0.008009746444849291 28.842525619797218 0.035156435195077856 -0.02257960013708554 -0.27441594285271537 0.4789711973652604 8.873909656079203 -52.8319637685316 20.085645133305526 -32.952804989104415 24.94457488235783 -15.1733564482763 -108.34567868585921 -2.076103573616138 2.762627991280028 -5.596389374273725 -0.4675388518666564 0.10489556509843467 -8.150120917732188 0.02905516976796239 -0.03173341811552195 44.574930669103814 0.004097828407679488 0.010080162794701076 44.56434268187945 12.48742742586788 0.04382889354097487 0.03519599505579153 -0.0201720013460869 -0.02333407898968528 0.01478023584259589 0.026564121649253654 -0.0127001092035366 -0.00875948597101006 11.091872333154173 -0.036350607539796416 0.03463445489477683 -0.023535627756621814 0.003930779597784417 0.02724271045882665 0.040217541133655575 -0.021130812340782963 -0.04850419629663924 4.800168371362665 -0.006318203498525083 0.0017760864818923618 0.005550270504976864 0.04748067587298835 -0.02455260887021092 0.04813807746492467 0.009963071633495474 0.016059944132319065 -5.613967165339126 0.011880010463844346 -0.02501239894717365 -6.68378322434658 -0.01877988940483494 -0.029733999373678172 -6.69866064531777 -0.04567382956174074 -0.00974731094301552 0.02632082145406549 0.004328612674625881 0.01948252306069184 8.02895159922597 3.4506009636250274 -19.210171673153447 -0.02775575588398472 10.414538860375236 -0.013317154078458859 -5.655533967323337 -15.700454148193424 3.2008031350009203 -0.03481402170853891 0.012808937118445786 -0.04736312135374408 -0.03546568610510528 4.745777998072806 0.023695590392250904 12.483067178805513 -8.201355087567066 6.884942434935585 0.032669788298711644 46.39394755491104 0.002515077004583403 -4.332747998228096 -14.74679578837508 -3.80506870651808 0.014713267204182147 -0.03557409679443482 -0.035351186941660145 0.019416046552753075 -10.761993698587318 0.04579695263251364 
-0.03619331298951723 0.0160554547000601 -0.03640131171023918 0.00798584815764888 0.03429625685745574 -0.02467418347759475 -3.322294976663805 8.78864199054312 -0.6054497107678081 -0.7928619498980244 3.1195749637149235 0.3775773731711135 -0.8742279073983659 0.26660477271218846 -1.676711831882805 -0.2094936894584768 0.61569962582226 -1.0507985977990661 -0.5787995974847926 8.868990878389292 0.3711652307523796 -0.2569692022512542 -1.1239209281120977 -2.401763018248548 -0.2593683635095801 -15.468365430442315 -0.09453095946737279 3.037635320447353 0.02491447259091622 -9.79520571239075 59.40756816493344 1.3200645860571247 22.958250840134717 2.800460607388754 3.0094432393433856 98.29314658443964 16.44151268414653 -0.4635806828714983 -4.877926518990073 4.511977043415614 -0.11964382745960017 -1.5770013853285754 0.01612962739935227 -0.034609370359410516 -56.25736301703227 -0.03842451977985525 -0.028449230130629145 -56.264745718202256 -38.75062903324476 0.03907962407898361 -0.027550194883430995 0.019468618110334495 0.032252339008675995 0.04905980993616127 -0.012562689969221913 -0.0194927829337948 0.032512264248727274 -36.714750358519815 0.0250810765836766 0.0416369145236358 0.03982150955411155 0.004116036373166035 -0.040469657623349004 0.012641792190258764 -0.014556905716975226 -0.010450860473530816 -19.7107112405857 -0.035035804453468704 -0.028176443855845605 0.019860913212310958 0.0059044630769380085 -0.028102616134834314 0.013918815903849056 0.005152206524560978 -0.03273814215148516 24.036753588645983 0.0006799366359116392 -0.004655925491952827 28.867470224120446 -0.021786502765812867 0.015484040542919892 28.88433082012837 0.04737878336921632 0.012577288395908857 -0.18566884047057838 0.5003739518583349 8.886826160694428 -52.462382698872254 20.10916917059422 -33.30395791363709 26.9955786541615 -15.788021784264432 -108.3739007398055 -1.9711111641236236 3.0913724128641893 -5.942352851746895 -0.479822459207521 0.06790243000718715 -8.135584255864115 -0.04573392350815532 0.00035206633161479606 44.55348924865048 -0.012070669839458233 0.008037288221450547 44.52026748606086 12.467227786881486 0.0038798967605968744 0.012366091604315654 0.0019079140252346184 -0.009879619848275041 -0.03896207045674563 0.04662083580660559 -0.03192055665490576 0.010140762321465649 11.1048955439855 0.0016118733754805483 -0.004676844113706052 -0.036355349168675506 -0.02875267434400923 0.022254725150877383 -0.0344299548918567 -0.043687618679723116 0.0002265843236691337 4.788048330818583 -0.03344481521843541 0.008767161226723292 0.03895858237359906 0.013020852757039222 0.0383567224144397 0.0036163068450323255 -0.04256835012529339 0.023957749035052236 -5.642431670695717 -0.024564316795074842 -0.04496354250471646 -6.739257700848808 0.0022185592739934314 -0.015042339993172976 -6.694336613482349 0.005618096116966737 -0.04075500449329266 0.012380926604552318 0.039819213940386775 0.029796579709201465 8.09044108569854 3.4889838633136767 -19.197237215300486 0.03417936062081903 10.370308322462224 0.033636476984022015 -5.635558309225067 -15.663507017892641 3.2267733433168737 -0.027301313648240434 0.041145498546339344 -0.017363907746393417 0.007841561136327457 4.724198445312302 1.7825094637729754e-05 12.453193766681075 -8.248108152367594 6.8843672005482635 0.04681765555912156 46.39703754038314 0.014575236446353829 -4.344396723171134 -14.781484144983361 -3.8211308810727846 -0.04535705771119887 0.005994743329573842 -0.016098827817597305 0.03336305927441402 -10.74999183245493 0.049093694028013425 
